<?xml version="1.0" encoding="UTF-8"?>
<!DOCTYPE svg PUBLIC "-//W3C//DTD SVG 1.1//EN" "http://www.w3.org/Graphics/SVG/1.1/DTD/svg11.dtd">
<!-- Creator: CorelDRAW (Versão de avaliação) -->
<svg xmlns="http://www.w3.org/2000/svg" xml:space="preserve" width="210mm" height="297mm" version="1.1" style="shape-rendering:geometricPrecision; text-rendering:geometricPrecision; image-rendering:optimizeQuality; fill-rule:evenodd; clip-rule:evenodd"
viewBox="0 0 21000 29700"
 xmlns:xlink="http://www.w3.org/1999/xlink"
 xmlns:xodm="http://www.corel.com/coreldraw/odm/2003">
 <defs>
  <style type="text/css">
   <![CDATA[
    .str0 {stroke:#EAE4ED;stroke-width:7.62;stroke-miterlimit:22.9256}
    .fil7 {fill:#A994B4}
    .fil5 {fill:#A994B4}
    .fil8 {fill:#CBC8CC}
    .fil6 {fill:#EAE4ED}
    .fil9 {fill:#EBE8ED}
    .fil12 {fill:#EDE7F0}
    .fil13 {fill:#F0EDF2}
    .fil10 {fill:#F7F7F7}
    .fil11 {fill:#FAFAFA}
    .fil4 {fill:#A8C4FF;fill-rule:nonzero;fill-opacity:0.219608}
    .fil3 {fill:#BBCFFF;fill-rule:nonzero;fill-opacity:0.219608}
    .fil2 {fill:#CDDBFF;fill-rule:nonzero;fill-opacity:0.219608}
    .fil1 {fill:#EFF3FF;fill-rule:nonzero;fill-opacity:0.219608}
    .fil0 {fill:white;fill-rule:nonzero;fill-opacity:0.219608}
   ]]>
  </style>
 </defs>
 <g id="Camada_x0020_1">
  <metadata id="CorelCorpID_0Corel-Layer"/>
  <g id="_1978469234512">
   <path class="fil0" d="M26250 14850c0,-8698.48 -7051.52,-15750 -15750,-15750 -8698.48,0 -15750,7051.52 -15750,15750 0,8698.48 7051.52,15750 15750,15750 8698.48,0 15750,-7051.52 15750,-15750z"/>
   <path class="fil1" d="M23625 14850c0,-7248.74 -5876.26,-13125 -13125,-13125 -7248.74,0 -13125,5876.26 -13125,13125 0,7248.74 5876.26,13125 13125,13125 7248.74,0 13125,-5876.26 13125,-13125z"/>
   <path class="fil2" d="M18375 14850c0,-4349.24 -3525.76,-7875 -7875,-7875 -4349.24,0 -7875,3525.76 -7875,7875 0,4349.24 3525.76,7875 7875,7875 4349.24,0 7875,-3525.76 7875,-7875z"/>
   <path class="fil3" d="M15750 14850c0,-2899.49 -2350.51,-5250 -5250,-5250 -2899.49,0 -5250,2350.51 -5250,5250 0,2899.49 2350.51,5250 5250,5250 2899.49,0 5250,-2350.51 5250,-5250z"/>
   <path class="fil4" d="M13125 14850c0,-1449.75 -1175.25,-2625 -2625,-2625 -1449.75,0 -2625,1175.25 -2625,2625 0,1449.75 1175.25,2625 2625,2625 1449.75,0 2625,-1175.25 2625,-2625z"/>
  </g>
  <path class="fil5" d="M13125 14850c0,-1449.75 -1175.25,-2625 -2625,-2625 -1449.75,0 -2625,1175.25 -2625,2625 0,1449.75 1175.25,2625 2625,2625 1449.75,0 2625,-1175.25 2625,-2625z"/>
  <path class="fil6" d="M13125 14850c0,-1449.75 -1175.25,-2625 -2625,-2625 -1449.75,0 -2625,1175.25 -2625,2625 0,1449.75 1175.25,2625 2625,2625 1449.75,0 2625,-1175.25 2625,-2625z"/>
  <path class="fil7" d="M10500 12225c1449.75,0 2625,1175.25 2625,2625 0,1449.75 -1175.25,2625 -2625,2625 -1449.75,0 -2625,-1175.25 -2625,-2625 0,-1449.75 1175.25,-2625 2625,-2625zm5250 2625c0,-2899.49 -2350.51,-5250 -5250,-5250 -2899.49,0 -5250,2350.51 -5250,5250 0,2899.49 2350.51,5250 5250,5250 2899.49,0 5250,-2350.51 5250,-5250z"/>
  <path class="fil8" d="M10500 12225c1449.75,0 2625,1175.25 2625,2625 0,1449.75 -1175.25,2625 -2625,2625 -1449.75,0 -2625,-1175.25 -2625,-2625 0,-1449.75 1175.25,-2625 2625,-2625zm5250 2625c0,-2899.49 -2350.51,-5250 -5250,-5250 -2899.49,0 -5250,2350.51 -5250,5250 0,2899.49 2350.51,5250 5250,5250 2899.49,0 5250,-2350.51 5250,-5250z"/>
  <path class="fil9" d="M10500 12225c1449.75,0 2625,1175.25 2625,2625 0,1449.75 -1175.25,2625 -2625,2625 -1449.75,0 -2625,-1175.25 -2625,-2625 0,-1449.75 1175.25,-2625 2625,-2625zm5250 2625c0,-2899.49 -2350.51,-5250 -5250,-5250 -2899.49,0 -5250,2350.51 -5250,5250 0,2899.49 2350.51,5250 5250,5250 2899.49,0 5250,-2350.51 5250,-5250z"/>
  <path class="fil8" d="M10500 9600c2899.49,0 5250,2350.51 5250,5250 0,2899.49 -2350.51,5250 -5250,5250 -2899.49,0 -5250,-2350.51 -5250,-5250 0,-2899.49 2350.51,-5250 5250,-5250zm7875 5250c0,-4349.24 -3525.76,-7875 -7875,-7875 -4349.24,0 -7875,3525.76 -7875,7875 0,4349.24 3525.76,7875 7875,7875 4349.24,0 7875,-3525.76 7875,-7875z"/>
  <path class="fil10" d="M5250 14850c0,-2899.49 2350.51,-5250 5250,-5250 2899.49,0 5250,2350.51 5250,5250 0,2899.49 -2350.51,5250 -5250,5250 -2899.49,0 -5250,-2350.51 -5250,-5250zm13125 0c0,-4349.24 -3525.76,-7875 -7875,-7875 -4349.24,0 -7875,3525.76 -7875,7875 0,4349.24 3525.76,7875 7875,7875 4349.24,0 7875,-3525.76 7875,-7875z"/>
  <path class="fil9" d="M2625 14850c0,-4349.24 3525.76,-7875 7875,-7875 4349.24,0 7875,3525.76 7875,7875 0,4349.24 -3525.76,7875 -7875,7875 -4349.24,0 -7875,-3525.76 -7875,-7875zm21000 0c0,-7248.74 -5876.26,-13125 -13125,-13125 -7248.74,0 -13125,5876.26 -13125,13125 0,7248.74 5876.26,13125 13125,13125 7248.74,0 13125,-5876.26 13125,-13125z"/>
  <path class="fil10" d="M2625 14850c0,-4349.24 3525.76,-7875 7875,-7875 4349.24,0 7875,3525.76 7875,7875 0,4349.24 -3525.76,7875 -7875,7875 -4349.24,0 -7875,-3525.76 -7875,-7875zm21000 0c0,-7248.74 -5876.26,-13125 -13125,-13125 -7248.74,0 -13125,5876.26 -13125,13125 0,7248.74 5876.26,13125 13125,13125 7248.74,0 13125,-5876.26 13125,-13125z"/>
  <path class="fil11" d="M2625 14850c0,-4349.24 3525.76,-7875 7875,-7875 4349.24,0 7875,3525.76 7875,7875 0,4349.24 -3525.76,7875 -7875,7875 -4349.24,0 -7875,-3525.76 -7875,-7875zm21000 0c0,-7248.74 -5876.26,-13125 -13125,-13125 -7248.74,0 -13125,5876.26 -13125,13125 0,7248.74 5876.26,13125 13125,13125 7248.74,0 13125,-5876.26 13125,-13125z"/>
  <path class="fil6" d="M10500 9600c-2899.49,0 -5250,2350.51 -5250,5250 0,2899.49 2350.51,5250 5250,5250 2899.49,0 5250,-2350.51 5250,-5250 0,-2899.49 -2350.51,-5250 -5250,-5250zm0 2625c1449.75,0 2625,1175.25 2625,2625 0,1449.75 -1175.25,2625 -2625,2625 -1449.75,0 -2625,-1175.25 -2625,-2625 0,-1449.75 1175.25,-2625 2625,-2625z"/>
  <path class="fil6 str0" d="M10500 9600c-2899.49,0 -5250,2350.51 -5250,5250 0,2899.49 2350.51,5250 5250,5250 2899.49,0 5250,-2350.51 5250,-5250 0,-2899.49 -2350.51,-5250 -5250,-5250zm0 2625c1449.75,0 2625,1175.25 2625,2625 0,1449.75 -1175.25,2625 -2625,2625 -1449.75,0 -2625,-1175.25 -2625,-2625 0,-1449.75 1175.25,-2625 2625,-2625z"/>
  <path class="fil6" d="M5250 14850c0,-2899.49 2350.51,-5250 5250,-5250 2899.49,0 5250,2350.51 5250,5250 0,2899.49 -2350.51,5250 -5250,5250 -2899.49,0 -5250,-2350.51 -5250,-5250zm5250 -7875c-4349.24,0 -7875,3525.76 -7875,7875 0,4349.24 3525.76,7875 7875,7875 4349.24,0 7875,-3525.76 7875,-7875 0,-4349.24 -3525.76,-7875 -7875,-7875z"/>
  <path class="fil12" d="M10500 9600c2899.49,0 5250,2350.51 5250,5250 0,2899.49 -2350.51,5250 -5250,5250 -2899.49,0 -5250,-2350.51 -5250,-5250 0,-2899.49 2350.51,-5250 5250,-5250zm0 -2625c-4349.24,0 -7875,3525.76 -7875,7875 0,4349.24 3525.76,7875 7875,7875 4349.24,0 7875,-3525.76 7875,-7875 0,-4349.24 -3525.76,-7875 -7875,-7875z"/>
  <path class="fil13" d="M10500 9600c2899.49,0 5250,2350.51 5250,5250 0,2899.49 -2350.51,5250 -5250,5250 -2899.49,0 -5250,-2350.51 -5250,-5250 0,-2899.49 2350.51,-5250 5250,-5250zm0 -2625c-4349.24,0 -7875,3525.76 -7875,7875 0,4349.24 3525.76,7875 7875,7875 4349.24,0 7875,-3525.76 7875,-7875 0,-4349.24 -3525.76,-7875 -7875,-7875z"/>
 </g>
</svg>
